<svg width="16" height="16" xmlns="http://www.w3.org/2000/svg">

 <g>
  <title>background</title>
  <rect fill="none" id="canvas_background" height="402" width="582" y="-1" x="-1"/>
 </g>
 <g>
  <title>Layer 1</title>
  <g id="svg_1" transform="scale(0.015625) " fill="#444">
   <path fill="#ffffff" id="svg_2" d="m576,1017.562l0,6.438l-128,0l0,-6.438c-216.876,-31.312 -384,-216.062 -384,-441.562l0,-256c0,-176.75 143.25,-320 320,-320c154.812,0 290.312,109.938 320,256l0,0l0,320c0,106.062 -86,192 -192,192s-192,-85.938 -192,-192l0,-256c0,-35.376 28.624,-64 64,-64s64,28.624 64,64l0,256c0,35.376 28.624,64 64,64s64,-28.624 64,-64l0,-320c0,0 -41.312,-128 -192,-128c-106,0 -192,85.938 -192,192l0,256c0,176.75 143.25,320 320,320l0,0c176.75,0 320,-143.25 320,-320l0,-512c0,-35.376 28.624,-64 64,-64s64,28.624 64,64l0,512c0,225.5 -167.124,410.25 -384,441.562z"/>
  </g>
 </g>
</svg>