<svg width="433" height="133" xmlns="http://www.w3.org/2000/svg">
 <!-- Created with Method Draw - http://github.com/duopixel/Method-Draw/ -->
 <g>
  <title>Layer 1</title>
  <rect stroke="#000" id="svg_27" height="89.090977" width="298.636605" y="-0.000198" x="59.912499" fill-opacity="null" stroke-opacity="null" stroke-width="1.5" fill="#000000"/>
  <path stroke="#000" transform="rotate(45 383.8057556152344,17.267366409301772) " id="svg_29" d="m414.159475,83.433665l0,0c-33.524831,0 -60.707465,-29.618464 -60.707465,-66.166318c0,-36.543172 27.182634,-66.166317 60.707465,-66.166317l0,0c-19.105818,15.619221 -30.351648,40.134282 -30.351648,66.166317s11.24583,50.542414 30.351648,66.166318z" fill-opacity="null" stroke-opacity="null" stroke-width="1.5" fill="#000000"/>
  <path stroke="#000" transform="rotate(135 34.71455383300781,19.08553695678711) " id="svg_31" d="m65.711107,85.251852l0,0c-34.234813,0 -61.993114,-29.618464 -61.993114,-66.166318c0,-36.543172 27.758301,-66.166317 61.993114,-66.166317l0,0c-19.510438,15.619221 -30.994428,40.134282 -30.994428,66.166317s11.483991,50.542414 30.994428,66.166318z" fill-opacity="null" stroke-opacity="null" stroke-width="1.5" fill="#000000"/>
  <ellipse stroke="#000" ry="17.045468" rx="149.772848" id="svg_32" cy="90.227149" cx="208.776256" fill-opacity="null" stroke-opacity="null" stroke-width="1.5" fill="#000000"/>
  <ellipse id="svg_34" cy="114.090804" cx="220.82172" fill-opacity="null" stroke-opacity="null" stroke-width="1.5" stroke="#000" fill="#000000"/>
 </g>
</svg>